<svg width="19" height="19" viewBox="0 0 19 19" fill="none" xmlns="http://www.w3.org/2000/svg">
<path d="M8.81216 5.35524L3.01763 11.1967V17.5014C3.01763 17.6647 3.07061 17.8212 3.16492 17.9366C3.25922 18.0521 3.38713 18.1169 3.5205 18.1169L7.04241 18.1058C7.17534 18.1049 7.3026 18.0397 7.39636 17.9244C7.49012 17.8091 7.54275 17.653 7.54275 17.4903V13.8084C7.54275 13.6452 7.59573 13.4886 7.69004 13.3732C7.78434 13.2577 7.91225 13.1929 8.04561 13.1929H10.0571C10.1904 13.1929 10.3183 13.2577 10.4126 13.3732C10.5069 13.4886 10.5599 13.6452 10.5599 13.8084V17.4876C10.5597 17.5686 10.5726 17.6488 10.5977 17.7237C10.6229 17.7986 10.6599 17.8667 10.7066 17.924C10.7534 17.9814 10.8089 18.0269 10.87 18.058C10.9311 18.089 10.9966 18.105 11.0628 18.105L14.5834 18.1169C14.7168 18.1169 14.8447 18.0521 14.939 17.9366C15.0333 17.8212 15.0863 17.6647 15.0863 17.5014V11.1925L9.29302 5.35524C9.22491 5.28804 9.14007 5.2514 9.05259 5.2514C8.96511 5.2514 8.88027 5.28804 8.81216 5.35524ZM17.9652 9.32562L15.3377 6.67472V1.34639C15.3377 1.22396 15.298 1.10655 15.2273 1.01997C15.1565 0.933401 15.0606 0.884766 14.9606 0.884766H13.2006C13.1005 0.884766 13.0046 0.933401 12.9339 1.01997C12.8632 1.10655 12.8234 1.22396 12.8234 1.34639V4.13962L10.0096 1.306C9.73957 1.03402 9.40072 0.885309 9.05102 0.885309C8.70132 0.885309 8.36247 1.03402 8.09244 1.306L0.136872 9.32562C0.0986821 9.36425 0.067086 9.41172 0.043889 9.46531C0.020692 9.51889 0.00634886 9.57755 0.00167897 9.63793C-0.00299091 9.6983 0.00210405 9.75921 0.0166727 9.81717C0.0312414 9.87514 0.0549983 9.92902 0.0865859 9.97574L0.88802 11.1683C0.919522 11.2152 0.958269 11.254 1.00204 11.2825C1.04582 11.311 1.09376 11.3287 1.14312 11.3346C1.19249 11.3404 1.24231 11.3342 1.28973 11.3165C1.33715 11.2987 1.38124 11.2696 1.41948 11.231L8.81216 3.77801C8.88027 3.71082 8.96511 3.67417 9.05259 3.67417C9.14007 3.67417 9.22491 3.71082 9.29302 3.77801L16.686 11.231C16.7242 11.2696 16.7682 11.2987 16.8156 11.3166C16.8629 11.3344 16.9127 11.3406 16.962 11.3349C17.0113 11.3292 17.0593 11.3116 17.103 11.2832C17.1468 11.2549 17.1856 11.2162 17.2172 11.1694L18.0186 9.9769C18.0502 9.9299 18.0738 9.87574 18.0882 9.81753C18.1026 9.75931 18.1075 9.69818 18.1025 9.63766C18.0975 9.57714 18.0828 9.51842 18.0593 9.46486C18.0357 9.41131 18.0037 9.36399 17.9652 9.32562Z" fill="#262626"/>
</svg>
